<svg width="60" height="12" viewBox="0 0 60 12" fill="none" xmlns="http://www.w3.org/2000/svg">
<path d="M3.168 7.88V11H0.512V1.624H1.568C1.824 1.624 2.20533 1.61333 2.712 1.592C3.21867 1.56533 3.63733 1.552 3.968 1.552C5.12 1.552 5.97867 1.80533 6.544 2.312C7.11467 2.81867 7.4 3.59467 7.4 4.64C7.4 5.25867 7.264 5.808 6.992 6.288C6.72533 6.768 6.37067 7.14933 5.928 7.432C6.168 7.49067 6.37333 7.62667 6.544 7.84C6.72 8.05333 6.856 8.30667 6.952 8.6C7.048 8.888 7.13067 9.18133 7.2 9.48C7.27467 9.77333 7.35733 10.064 7.448 10.352C7.544 10.64 7.648 10.856 7.76 11H4.808C4.74933 10.9253 4.704 10.7173 4.672 10.376C4.64 10.0293 4.59467 9.616 4.536 9.136C4.48267 8.65067 4.40533 8.24533 4.304 7.92C4.29333 7.92 4.28 7.92 4.264 7.92C4.16267 7.92 4.05333 7.92 3.936 7.92C3.824 7.91467 3.72533 7.90933 3.64 7.904C3.55467 7.89867 3.464 7.89333 3.368 7.888C3.27733 7.88267 3.21067 7.88 3.168 7.88ZM3.168 6.392H3.424C3.55733 6.392 3.66933 6.38667 3.76 6.376C3.85067 6.36533 3.94933 6.34667 4.056 6.32C4.168 6.288 4.25867 6.24 4.328 6.176C4.40267 6.112 4.472 6.02933 4.536 5.928C4.6 5.82667 4.648 5.696 4.68 5.536C4.712 5.376 4.728 5.18933 4.728 4.976V4.344C4.728 3.88 4.60533 3.55733 4.36 3.376C4.12 3.18933 3.77333 3.096 3.32 3.096H3.168V6.392ZM11.5744 10.208C11.809 10.208 11.9877 10.112 12.1104 9.92C12.2384 9.72267 12.3024 9.45333 12.3024 9.112V6.584C12.3024 5.544 12.057 5.024 11.5664 5.024C11.337 5.024 11.1584 5.11733 11.0304 5.304C10.9024 5.49067 10.8384 5.75467 10.8384 6.096V8.696C10.8384 9.704 11.0837 10.208 11.5744 10.208ZM11.5104 11.168C10.289 11.168 9.39571 10.8907 8.83037 10.336C8.26504 9.78133 7.98237 8.896 7.98237 7.68C7.98237 6.47467 8.26771 5.568 8.83838 4.96C9.40904 4.34667 10.337 4.04 11.6224 4.04C12.8757 4.04 13.7797 4.33333 14.3344 4.92C14.8944 5.50133 15.1744 6.384 15.1744 7.568C15.1744 8.79467 14.8784 9.70133 14.2864 10.288C13.6997 10.8747 12.7744 11.168 11.5104 11.168ZM20.1419 11C19.5445 11 19.0112 10.8747 18.5419 10.624V11H15.9339V1.952L15.4539 1.664V0.92L18.0219 0.52H18.5419V4.824C18.6272 4.728 18.7205 4.63733 18.8219 4.552C18.9232 4.46667 19.0459 4.384 19.1899 4.304C19.3339 4.224 19.4965 4.16 19.6779 4.112C19.8645 4.064 20.0619 4.04 20.2699 4.04C21.1499 4.04 21.7952 4.34133 22.2059 4.944C22.6219 5.54667 22.8299 6.38133 22.8299 7.448C22.8299 7.94933 22.7739 8.41333 22.6619 8.84C22.5499 9.26133 22.3845 9.63467 22.1659 9.96C21.9472 10.2853 21.6645 10.5413 21.3179 10.728C20.9765 10.9093 20.5845 11 20.1419 11ZM18.9659 9.888C19.6805 9.888 20.0379 9.34133 20.0379 8.248V6.888C20.0379 6.42933 19.9525 6.07733 19.7819 5.832C19.6165 5.58133 19.4032 5.456 19.1419 5.456C18.9445 5.456 18.7445 5.528 18.5419 5.672V9.832C18.6219 9.85333 18.6965 9.86933 18.7659 9.88C18.8352 9.88533 18.9019 9.888 18.9659 9.888ZM27.2551 6.864C27.2551 6.18667 27.2204 5.70667 27.1511 5.424C27.0817 5.14133 26.9537 5 26.7671 5C26.6071 5 26.4764 5.02933 26.3751 5.088C26.2737 5.14133 26.1991 5.22933 26.1511 5.352C26.1031 5.46933 26.0711 5.592 26.0551 5.72C26.0444 5.84267 26.0391 6 26.0391 6.192V6.864H27.2551ZM26.6151 11.168C26.0177 11.168 25.4977 11.0773 25.0551 10.896C24.6177 10.7147 24.2711 10.4613 24.0151 10.136C23.7644 9.81067 23.5804 9.44533 23.4631 9.04C23.3457 8.62933 23.2871 8.17333 23.2871 7.672C23.2871 6.47733 23.5911 5.57333 24.1991 4.96C24.8071 4.34667 25.6577 4.04 26.7511 4.04C27.8017 4.04 28.5537 4.288 29.0071 4.784C29.4604 5.27467 29.6871 6.06667 29.6871 7.16V8.048H26.0311V8.2C26.0311 8.51467 26.0631 8.77333 26.1271 8.976C26.1964 9.17867 26.2951 9.328 26.4231 9.424C26.5511 9.52 26.6817 9.584 26.8151 9.616C26.9484 9.648 27.1111 9.664 27.3031 9.664C27.4897 9.664 27.6897 9.64 27.9031 9.592C28.1217 9.544 28.3404 9.46933 28.5591 9.368C28.7831 9.26667 28.9697 9.14667 29.1191 9.008L29.5911 9.816C29.3937 10.136 29.1031 10.4053 28.7191 10.624C28.3404 10.8373 27.9751 10.9813 27.6231 11.056C27.2711 11.1307 26.9351 11.168 26.6151 11.168ZM33.1377 11H30.5537V5.824L30.0737 5.528V4.624L31.7937 4.2H32.4417L32.6737 6.104C32.8924 4.79733 33.5937 4.144 34.7777 4.144C34.911 4.144 35.0497 4.168 35.1937 4.216L34.9217 7.064C34.8097 6.96267 34.5644 6.912 34.1857 6.912C33.6417 6.912 33.2924 7.056 33.1377 7.344V11ZM37.6991 11.168C36.9791 11.168 36.4751 10.952 36.1871 10.52C35.9045 10.088 35.7631 9.35733 35.7631 8.328V5.608H35.2111V4.496L36.1551 4.2L36.9711 2.336H38.3791V4.2H39.6911V5.608H38.3551V8.584C38.3551 9.01067 38.4165 9.29333 38.5391 9.432C38.6618 9.57067 38.8511 9.64 39.1071 9.64C39.2191 9.64 39.3205 9.62667 39.4111 9.6C39.5018 9.57333 39.5765 9.536 39.6351 9.488V10.576C39.5551 10.656 39.4511 10.736 39.3231 10.816C39.1951 10.8907 38.9818 10.968 38.6831 11.048C38.3898 11.128 38.0618 11.168 37.6991 11.168ZM40.4134 7.288V5.28H45.1974V7.288H40.4134ZM50.9398 11L50.6277 9.968C50.5851 10.0427 50.5344 10.1173 50.4758 10.192C50.4224 10.2667 50.3344 10.3627 50.2117 10.48C50.0891 10.592 49.9584 10.6907 49.8198 10.776C49.6811 10.8613 49.5078 10.936 49.2997 11C49.0917 11.064 48.8731 11.096 48.6438 11.096C47.7638 11.096 47.1184 10.7947 46.7077 10.192C46.2971 9.58933 46.0917 8.752 46.0917 7.68C46.0917 7.008 46.1877 6.41067 46.3797 5.888C46.5718 5.36 46.8731 4.936 47.2837 4.616C47.6944 4.296 48.1904 4.136 48.7718 4.136C49.1184 4.136 49.4277 4.17333 49.6997 4.248C49.9717 4.32267 50.2064 4.41333 50.4037 4.52V2.096L49.5238 1.8V0.92L52.3558 0.52H52.9797V11H50.9398ZM49.8117 9.528C49.9077 9.528 50.0064 9.512 50.1077 9.48C50.2091 9.44267 50.3077 9.392 50.4037 9.328V5.304C50.2384 5.26667 50.0864 5.248 49.9478 5.248C49.2384 5.25333 48.8811 5.8 48.8757 6.888V8.008C48.8757 8.50933 48.9637 8.888 49.1398 9.144C49.3157 9.4 49.5397 9.528 49.8117 9.528ZM56.1655 11.168C55.6642 11.168 55.1575 11.0853 54.6455 10.92C54.1335 10.7493 53.8055 10.584 53.6615 10.424L53.8695 9.136C54.0508 9.312 54.3522 9.464 54.7735 9.592C55.2002 9.72 55.6348 9.784 56.0775 9.784C56.3975 9.784 56.6162 9.744 56.7335 9.664C56.8562 9.584 56.9175 9.472 56.9175 9.328C56.9175 9.18933 56.8108 9.06667 56.5975 8.96C56.3842 8.848 56.0375 8.72 55.5575 8.576C54.3148 8.20267 53.6935 7.42933 53.6935 6.256C53.6935 5.776 53.8322 5.36533 54.1095 5.024C54.3868 4.67733 54.7415 4.42667 55.1735 4.272C55.6055 4.11733 56.0882 4.04 56.6215 4.04C57.5335 4.04 58.2055 4.208 58.6375 4.544C58.7335 4.63467 58.7815 4.68 58.7815 4.68L58.4295 5.824C58.0775 5.47733 57.5922 5.304 56.9735 5.304C56.4668 5.304 56.2135 5.45333 56.2135 5.752C56.2135 5.83733 56.2322 5.90933 56.2695 5.968C56.3068 6.02133 56.3682 6.06933 56.4535 6.112C56.5442 6.14933 56.6322 6.18133 56.7175 6.208C56.8028 6.22933 56.9228 6.26133 57.0775 6.304C57.2322 6.34133 57.3655 6.376 57.4775 6.408C58.1015 6.616 58.5548 6.90933 58.8375 7.288C59.1202 7.66667 59.2615 8.13867 59.2615 8.704C59.2615 10.3467 58.2295 11.168 56.1655 11.168Z" fill="black"/>
</svg>
